<svg width="72" height="72" viewBox="0 0 72 72" fill="none" xmlns="http://www.w3.org/2000/svg">
<path d="M62.4887 25.7591C61.7758 23.8614 60.8668 22.0411 59.801 20.3187C59.4602 19.7679 58.5513 19.5378 58.1928 20.1951C57.8151 20.8875 57.3952 21.4619 57.2155 21.7071C57.2138 21.7094 57.2122 21.7117 57.2105 21.714C56.9157 22.1187 56.8842 22.6584 57.1301 23.0946C59.2322 26.8242 60.5033 31.025 60.5426 35.2961C60.5493 35.8511 60.5386 36.5375 60.4974 37.0891C60.4637 37.6596 60.397 38.3076 60.3019 38.8714C60.0605 40.4358 59.5905 41.9854 59.0814 43.4824C58.9607 43.7973 58.7907 44.2862 58.6559 44.5924L58.4273 45.1413C58.3416 45.3193 58.1367 45.7805 58.0517 45.9525C57.964 46.1217 57.7368 46.5749 57.6457 46.7495C57.3672 47.2539 57.0523 47.8163 56.7448 48.2991C55.2998 50.5783 53.4804 52.6323 51.4082 54.3599C49.3299 56.0849 46.9772 57.4996 44.4728 58.5138C43.9387 58.7255 43.3231 58.946 42.7816 59.124C42.6035 59.1807 42.085 59.3304 41.9218 59.3816C41.7229 59.4376 41.263 59.5475 41.0532 59.6069C32.08 61.7755 22.0157 58.2387 16.3345 50.9681C12.3749 45.9309 10.48 39.2355 11.4072 32.882C12.3688 26.484 16.2165 20.6956 21.2854 16.7393C28.8503 10.802 40.0504 9.84636 48.5863 14.265C49.1637 14.5639 50.0474 14.4667 50.5486 14.0527C50.9706 13.7041 51.049 13.4833 51.4327 13.0756C51.9488 12.5271 51.7532 11.8572 51.2047 11.5311C50.9096 11.3557 50.6071 11.1823 50.3771 11.0657C40.12 5.80658 26.7629 7.20311 18.0419 14.8243C12.8489 19.3005 9.00935 25.5131 7.96414 32.3608C6.23247 43.4164 11.9865 55.0471 21.8175 60.3837C26.8574 63.1984 32.7435 64.5234 38.505 63.9509C39.1355 63.897 39.9541 63.7756 40.5758 63.665C41.4733 63.5079 42.4127 63.2934 43.288 63.0399C46.8423 62.0352 50.195 60.3075 53.1257 58.064C55.6834 56.0937 57.9491 53.714 59.7496 51.0329C60.4583 49.989 61.1084 48.8514 61.6721 47.7239C61.8926 47.2647 62.1974 46.6079 62.3896 46.1325C62.548 45.7731 62.755 45.1993 62.8967 44.8284C62.9661 44.6119 63.1583 44.0448 63.2224 43.8351C63.3073 43.5087 63.4227 43.1527 63.5002 42.827C63.7713 41.7164 63.983 40.5329 64.1131 39.398C64.7153 34.7951 64.1401 30.0937 62.4887 25.7591Z" fill="#34C759"/>
<path d="M59.7487 11.6947C59.254 10.8718 58.1859 10.6056 57.363 11.1003C57.1506 11.228 56.9552 11.3705 56.7642 11.517C55.8889 12.1699 54.9736 13.221 54.2353 14.0129C47.7491 21.008 41.8711 28.6225 37.0216 36.8606C36.5391 37.6627 36.0388 38.5431 35.634 39.3879C35.2443 40.1841 34.8291 41.0614 34.4584 41.8713C31.9076 37.2014 27.8942 32.0766 23.1303 29.9795C21.2256 29.1915 19.3409 31.1971 20.2841 33.0584C20.5637 33.6073 20.8901 34.1193 21.2167 34.6351C22.8091 37.1439 24.6805 39.4353 26.3342 41.8917C28.4369 44.9689 30.2078 48.2273 31.9206 51.5293C33.1005 53.7558 36.4424 53.4218 37.146 50.9798C38.3273 48.4947 39.5414 46.0398 40.8397 43.6191C41.2545 42.834 41.7335 41.9979 42.132 41.2073C42.5196 40.4304 42.9551 39.5319 43.358 38.7606C46.6979 32.2221 50.7052 26.0564 55.0384 20.1147C55.7727 19.1131 56.7754 17.7572 57.5269 16.7666C58.0047 16.1265 58.7705 15.1825 59.181 14.5172C59.4366 14.1159 59.6765 13.7064 59.8621 13.2622C60.0687 12.7682 60.0449 12.1881 59.7487 11.6947Z" fill="#34C759"/>
</svg>
