<svg width="500" height="500" viewBox="0 0 500 500" fill="none" xmlns="http://www.w3.org/2000/svg">
<path d="M332.846 218.039H265.294V397.903H332.846V218.039Z" stroke="#FFD1BD" stroke-miterlimit="10"/>
<path d="M308.49 200.049H289.65V206.487H308.49V200.049Z" stroke="#FFD1BD" stroke-miterlimit="10"/>
<path d="M332.846 218.039H265.294V397.903H332.846V218.039Z" stroke="#FFD1BD" stroke-miterlimit="10"/>
<path d="M285.969 222.213H271.357V266.243H285.969V222.213Z" stroke="#FFD1BD" stroke-miterlimit="10"/>
<path d="M306.376 222.213H291.764V266.243H306.376V222.213Z" stroke="#FFD1BD" stroke-miterlimit="10"/>
<path d="M326.784 222.213H312.172V266.243H326.784V222.213Z" stroke="#FFD1BD" stroke-miterlimit="10"/>
<path d="M332.846 266.244H265.294V271.694H332.846V266.244Z" stroke="#FFD1BD" stroke-miterlimit="10"/>
<path d="M332.846 218.039H265.294V222.213H332.846V218.039Z" stroke="#FFD1BD" stroke-miterlimit="10"/>
<path d="M285.969 271.693H271.357V315.723H285.969V271.693Z" stroke="#FFD1BD" stroke-miterlimit="10"/>
<path d="M306.376 271.693H291.764V315.723H306.376V271.693Z" stroke="#FFD1BD" stroke-miterlimit="10"/>
<path d="M326.784 271.693H312.172V315.723H326.784V271.693Z" stroke="#FFD1BD" stroke-miterlimit="10"/>
<path d="M332.846 315.723H265.294V321.173H332.846V315.723Z" stroke="#FFD1BD" stroke-miterlimit="10"/>
<path d="M285.969 321.174H271.357V365.204H285.969V321.174Z" stroke="#FFD1BD" stroke-miterlimit="10"/>
<path d="M306.376 321.174H291.764V365.204H306.376V321.174Z" stroke="#FFD1BD" stroke-miterlimit="10"/>
<path d="M326.784 321.174H312.172V365.204H326.784V321.174Z" stroke="#FFD1BD" stroke-miterlimit="10"/>
<path d="M332.846 365.203H265.294V397.903H332.846V365.203Z" stroke="#FFD1BD" stroke-miterlimit="10"/>
<path d="M334.821 206.486H263.319V218.039H334.821V206.486Z" stroke="#FFD1BD" stroke-miterlimit="10"/>
<path d="M419.216 271.459H345.053V395.835H419.216V271.459Z" stroke="#FFD1BD" stroke-miterlimit="10"/>
<path d="M389.819 283.779H349.918V293.607H389.819V283.779Z" stroke="#FFD1BD" stroke-miterlimit="10"/>
<path d="M412.342 297.697H372.441V307.525H412.342V297.697Z" stroke="#FFD1BD" stroke-miterlimit="10"/>
<path d="M389.819 339.449H349.918V349.277H389.819V339.449Z" stroke="#FFD1BD" stroke-miterlimit="10"/>
<path d="M409.769 353.367H369.867V363.195H409.769V353.367Z" stroke="#FFD1BD" stroke-miterlimit="10"/>
<path d="M374.451 311.615H349.918V321.443H374.451V311.615Z" stroke="#FFD1BD" stroke-miterlimit="10"/>
<path d="M404.082 311.615H379.549V321.443H404.082V311.615Z" stroke="#FFD1BD" stroke-miterlimit="10"/>
<path d="M404.082 367.285H379.549V377.113H404.082V367.285Z" stroke="#FFD1BD" stroke-miterlimit="10"/>
<path d="M413.472 325.531H388.939V335.359H413.472V325.531Z" stroke="#FFD1BD" stroke-miterlimit="10"/>
<path d="M385.404 325.531H349.918V335.359H385.404V325.531Z" stroke="#FFD1BD" stroke-miterlimit="10"/>
<path d="M419.216 271.459H345.053V276.513H419.216V271.459Z" stroke="#FFD1BD" stroke-miterlimit="10"/>
<path d="M369.868 252.662H345.053V260.329H369.868V252.662Z" stroke="#FFD1BD" stroke-miterlimit="10"/>
<path d="M423.641 260.33H340.629V271.46H423.641V260.33Z" stroke="#FFD1BD" stroke-miterlimit="10"/>
<path d="M182.986 226.188H79.8533V399.148H182.986V226.188Z" stroke="#FFD1BD" stroke-miterlimit="10"/>
<path d="M142.105 243.322H86.617V256.989H142.105V243.322Z" stroke="#FFD1BD" stroke-miterlimit="10"/>
<path d="M173.429 262.676H117.941V276.343H173.429V262.676Z" stroke="#FFD1BD" stroke-miterlimit="10"/>
<path d="M142.105 320.738H86.617V334.405H142.105V320.738Z" stroke="#FFD1BD" stroke-miterlimit="10"/>
<path d="M169.849 340.094H114.361V353.761H169.849V340.094Z" stroke="#FFD1BD" stroke-miterlimit="10"/>
<path d="M120.734 282.029H86.617V295.696H120.734V282.029Z" stroke="#FFD1BD" stroke-miterlimit="10"/>
<path d="M161.94 282.029H127.823V295.696H161.94V282.029Z" stroke="#FFD1BD" stroke-miterlimit="10"/>
<path d="M161.94 359.447H127.823V373.114H161.94V359.447Z" stroke="#FFD1BD" stroke-miterlimit="10"/>
<path d="M174.998 301.385H140.881V315.052H174.998V301.385Z" stroke="#FFD1BD" stroke-miterlimit="10"/>
<path d="M135.964 301.385H86.617V315.052H135.964V301.385Z" stroke="#FFD1BD" stroke-miterlimit="10"/>
<path d="M182.986 226.188H79.8533V233.215H182.986V226.188Z" stroke="#FFD1BD" stroke-miterlimit="10"/>
<path d="M114.362 200.049H79.8533V210.711H114.362V200.049Z" stroke="#FFD1BD" stroke-miterlimit="10"/>
<path d="M189.139 210.709H73.7V226.187H189.139V210.709Z" stroke="#FFD1BD" stroke-miterlimit="10"/>
<path d="M256.64 161.947H193.748V399.148H256.64V161.947Z" stroke="#FFD1BD" stroke-miterlimit="10"/>
<path d="M214.524 171.773H200.443V213.689H214.524V171.773Z" stroke="#FFD1BD" stroke-miterlimit="10"/>
<path d="M231.957 171.773H217.876V213.689H231.957V171.773Z" stroke="#FFD1BD" stroke-miterlimit="10"/>
<path d="M249.947 171.773H235.866V213.689H249.947V171.773Z" stroke="#FFD1BD" stroke-miterlimit="10"/>
<path d="M214.524 217.482H200.443V259.398H214.524V217.482Z" stroke="#FFD1BD" stroke-miterlimit="10"/>
<path d="M231.957 217.482H217.876V259.398H231.957V217.482Z" stroke="#FFD1BD" stroke-miterlimit="10"/>
<path d="M249.947 217.482H235.866V259.398H249.947V217.482Z" stroke="#FFD1BD" stroke-miterlimit="10"/>
<path d="M214.524 261.857H200.443V303.773H214.524V261.857Z" stroke="#FFD1BD" stroke-miterlimit="10"/>
<path d="M231.957 261.857H217.876V303.773H231.957V261.857Z" stroke="#FFD1BD" stroke-miterlimit="10"/>
<path d="M249.947 261.857H235.866V303.773H249.947V261.857Z" stroke="#FFD1BD" stroke-miterlimit="10"/>
<path d="M214.524 308.396H200.443V350.312H214.524V308.396Z" stroke="#FFD1BD" stroke-miterlimit="10"/>
<path d="M231.957 308.396H217.876V350.312H231.957V308.396Z" stroke="#FFD1BD" stroke-miterlimit="10"/>
<path d="M249.947 308.396H235.866V350.312H249.947V308.396Z" stroke="#FFD1BD" stroke-miterlimit="10"/>
<path d="M214.524 352.994H200.443V394.91H214.524V352.994Z" stroke="#FFD1BD" stroke-miterlimit="10"/>
<path d="M231.957 352.994H217.876V394.91H231.957V352.994Z" stroke="#FFD1BD" stroke-miterlimit="10"/>
<path d="M249.947 352.994H235.866V394.91H249.947V352.994Z" stroke="#FFD1BD" stroke-miterlimit="10"/>
<path d="M256.687 161.947H193.748V168.133H256.687V161.947Z" stroke="#FFD1BD" stroke-miterlimit="10"/>
<path d="M262.286 145.998H188.104V161.948H262.286V145.998Z" stroke="#FFD1BD" stroke-miterlimit="10"/>
<path d="M215.993 145.998L207.254 135.668H193.748V145.998H215.993Z" stroke="#FFD1BD" stroke-miterlimit="10"/>
<path d="M250 419.889C377.716 419.889 481.25 412.427 481.25 403.222C481.25 394.017 377.716 386.555 250 386.555C122.284 386.555 18.75 394.017 18.75 403.222C18.75 412.427 122.284 419.889 250 419.889Z" fill="#FFD1BD"/>
<path d="M428.865 214.653C428.487 208.994 424.732 204.272 419.59 202.477C419.593 202.343 419.61 202.213 419.61 202.078C419.61 190.554 410.268 181.211 398.743 181.211C388.992 181.211 380.827 187.909 378.538 196.948C369.814 197.255 362.831 204.405 362.831 213.203C362.831 213.67 362.862 214.129 362.901 214.586H362.726C355.651 214.586 349.916 220.321 349.916 227.396C349.916 234.471 355.651 240.206 362.726 240.206H427.56C434.635 240.206 440.37 234.471 440.37 227.396C440.371 220.763 435.327 215.307 428.865 214.653Z" stroke="#FFD1BD" stroke-miterlimit="10"/>
<path d="M101.374 140.497C101.146 137.076 98.8764 134.222 95.7684 133.136C95.7694 133.055 95.7804 132.976 95.7804 132.895C95.7804 125.929 90.1334 120.281 83.1664 120.281C77.2724 120.281 72.3364 124.33 70.9524 129.794C65.6794 129.98 61.4574 134.302 61.4574 139.62C61.4574 139.902 61.4764 140.18 61.4994 140.456H61.3934C57.1164 140.456 53.6494 143.923 53.6494 148.2C53.6494 152.477 57.1164 155.943 61.3934 155.943H100.585C104.862 155.943 108.329 152.476 108.329 148.2C108.33 144.19 105.281 140.892 101.374 140.497Z" stroke="#FFD1BD" stroke-miterlimit="10"/>
<path d="M340.893 168.637C340.672 165.32 338.47 162.552 335.456 161.499C335.457 161.42 335.468 161.344 335.468 161.265C335.468 154.509 329.991 149.033 323.236 149.033C317.52 149.033 312.733 152.96 311.391 158.259C306.277 158.439 302.183 162.63 302.183 167.788C302.183 168.062 302.201 168.331 302.224 168.599H302.121C297.974 168.599 294.612 171.961 294.612 176.108C294.612 180.255 297.974 183.618 302.121 183.618H340.128C344.275 183.618 347.637 180.256 347.637 176.108C347.638 172.218 344.681 169.02 340.893 168.637Z" stroke="#FFD1BD" stroke-miterlimit="10"/>
<path d="M202.406 96.3417C202.041 90.8787 198.416 86.3197 193.452 84.5857C193.455 84.4567 193.471 84.3307 193.471 84.2007C193.471 73.0747 184.451 64.0547 173.325 64.0547C163.911 64.0547 156.028 70.5217 153.818 79.2487C145.396 79.5447 138.654 86.4477 138.654 94.9427C138.654 95.3937 138.684 95.8367 138.722 96.2777H138.553C131.723 96.2777 126.185 101.815 126.185 108.645C126.185 115.475 131.722 121.012 138.553 121.012H201.148C207.978 121.012 213.515 115.475 213.515 108.645C213.514 102.241 208.645 96.9727 202.406 96.3417Z" stroke="#FFD1BD" stroke-miterlimit="10"/>
<path d="M250.372 151.631C267.69 147.482 278.366 130.079 274.217 112.761C270.067 95.4431 252.665 84.7676 235.347 88.9168C218.028 93.0661 207.353 110.469 211.502 127.787C215.651 145.105 233.054 155.781 250.372 151.631Z" fill="#F3B753"/>
<path d="M249.105 126.259C245.822 129.719 240.349 129.825 236.889 126.542C235.159 124.918 234.206 122.623 234.206 120.257C234.206 115.491 238.09 111.607 242.856 111.607C247.622 111.607 251.506 115.491 251.506 120.257V122.834C251.506 124.282 252.671 125.411 254.083 125.411C255.53 125.411 256.66 124.246 256.66 122.834V120.257C256.66 112.631 250.446 106.417 242.82 106.417C235.194 106.417 228.98 112.631 228.98 120.257C228.98 127.883 235.194 134.097 242.82 134.097C244.621 134.097 246.421 133.744 248.116 133.038C248.963 132.614 250.022 132.932 250.446 133.815C250.87 134.698 250.552 135.722 249.669 136.145C249.598 136.18 249.528 136.216 249.422 136.251C240.595 139.923 230.463 135.721 226.826 126.895C223.189 118.069 227.356 107.936 236.182 104.299C245.009 100.662 255.141 104.829 258.778 113.655C259.731 115.738 260.19 117.998 260.19 120.257V122.834C260.19 126.188 257.507 128.907 254.153 128.907C252.142 128.943 250.235 127.919 249.105 126.259ZM242.891 125.447C245.751 125.447 248.081 123.117 248.081 120.257C248.081 117.397 245.751 115.067 242.891 115.067C240.031 115.067 237.701 117.397 237.701 120.257C237.701 123.117 240.032 125.447 242.891 125.447Z" fill="white"/>
<path d="M351.761 143.083C364.352 130.491 364.352 110.075 351.761 97.4835C339.169 84.8915 318.753 84.8915 306.161 97.4835C293.569 110.075 293.569 130.491 306.161 143.083C318.753 155.675 339.169 155.675 351.761 143.083Z" fill="#F3B753"/>
<path d="M343.714 131.271C341.452 130.61 334.917 127.403 334.171 128.068C333.425 128.732 330.256 131.555 330.256 131.555C328.161 131.082 324.526 128.128 322.618 125.985C320.71 123.844 318.194 119.894 317.964 117.757C317.964 117.757 321.135 114.933 321.88 114.268C322.626 113.604 320.192 106.744 319.796 104.421C319.4 102.099 315.667 102.414 314.051 102.851C312.433 103.288 305.512 115.139 318.467 129.683C331.425 144.226 343.993 138.713 344.615 137.157C345.231 135.603 345.975 131.931 343.714 131.271Z" fill="white"/>
<path d="M419.971 151.626C437.289 147.476 447.965 130.074 443.815 112.755C439.666 95.4373 422.263 84.7617 404.945 88.911C387.627 93.0602 376.952 110.463 381.101 127.781C385.25 145.099 402.653 155.775 419.971 151.626Z" fill="#F3B753"/>
<path d="M412.537 98.4102C404.102 98.4102 397.283 105.229 397.283 113.664C397.283 121.919 404.102 133.045 410.024 140.941C411.28 142.556 413.613 142.556 414.869 140.941C420.791 133.045 427.61 121.919 427.61 113.664C427.611 105.23 420.792 98.4102 412.537 98.4102ZM412.447 122.945C407.47 122.945 403.435 118.91 403.435 113.933C403.435 108.956 407.47 104.921 412.447 104.921C417.424 104.921 421.459 108.956 421.459 113.933C421.459 118.91 417.424 122.945 412.447 122.945Z" fill="white"/>
<mask id="mask0_102_2695" style="mask-type:luminance" maskUnits="userSpaceOnUse" x="0" y="83" width="277" height="415">
<path d="M276.098 83.7207H0V498H276.098V83.7207Z" fill="white"/>
</mask>
<g mask="url(#mask0_102_2695)">
<path d="M86.3837 331.173L151.437 329.934L151.159 336.641L158.53 617.626H109.056L119.224 460.508L116.153 376.526L98.5537 617.837H39.7297L75.6617 464.108L87.0837 338.558L86.3837 331.173Z" fill="#121212"/>
<path d="M126.08 617.626L134.062 460.774C134.062 460.774 127.127 405.726 126.516 393.539C125.906 381.351 143.058 373.201 143.058 373.201L116.153 376.526L119.224 460.508L109.056 617.626H126.08Z" fill="#121212"/>
<path d="M136.068 203.482C136.068 203.482 132.496 208.221 124.185 209.362C115.874 210.503 106.747 204.741 106.747 204.741L105.767 149.811C105.767 149.811 126.115 151.021 126.037 152.04C125.958 153.059 136.068 203.482 136.068 203.482Z" fill="#FFC6A8"/>
<path d="M108.887 155.984C108.717 153.879 108.682 151.907 108.707 149.998C109.039 150.02 109.396 150.045 109.767 150.071C109.832 150.075 109.9 150.08 109.965 150.085C110.273 150.107 110.593 150.129 110.922 150.153C110.995 150.158 111.067 150.163 111.141 150.169C111.532 150.197 111.935 150.227 112.348 150.258C112.403 150.262 112.459 150.266 112.514 150.27C112.869 150.297 113.231 150.325 113.597 150.353C113.695 150.361 113.792 150.368 113.891 150.376C114.306 150.409 114.725 150.442 115.146 150.477C115.226 150.484 115.307 150.49 115.388 150.497C115.744 150.526 116.1 150.557 116.455 150.587C116.562 150.596 116.669 150.605 116.776 150.615C117.179 150.65 117.579 150.686 117.976 150.723C118.088 150.733 118.199 150.744 118.311 150.754C118.647 150.786 118.98 150.818 119.307 150.85C119.396 150.859 119.487 150.868 119.575 150.877C119.956 150.916 120.328 150.955 120.691 150.994C120.798 151.006 120.902 151.017 121.007 151.029C121.321 151.064 121.627 151.099 121.922 151.135C121.982 151.142 122.045 151.15 122.104 151.157C122.443 151.199 122.762 151.241 123.068 151.283C123.146 151.294 123.222 151.305 123.298 151.316C123.564 151.354 123.817 151.392 124.051 151.431C124.089 151.437 124.131 151.443 124.168 151.449C124.424 151.492 124.651 151.535 124.86 151.578C124.913 151.589 124.962 151.6 125.011 151.611C125.199 151.652 125.368 151.694 125.508 151.735C125.519 151.738 125.535 151.742 125.545 151.745C125.688 151.789 125.791 151.832 125.873 151.875C125.893 151.886 125.91 151.896 125.927 151.907C125.994 151.951 126.04 151.994 126.037 152.038C125.984 152.734 130.687 176.499 133.671 191.481C116.257 192.359 110.282 173.283 108.887 155.984Z" fill="#EAA98C"/>
<path d="M140.432 183.382C130.846 185.731 111.714 182.918 109.683 154.671C107.652 126.424 122.255 115.096 132.798 117.333C143.34 119.57 150.394 143.34 151.436 155.311C152.477 167.281 152.575 180.406 140.432 183.382Z" fill="#FFC6A8"/>
<path d="M127.777 143.98C127.888 142.97 128.797 142.242 129.806 142.353C130.816 142.464 131.544 143.373 131.433 144.382C131.322 145.392 130.414 146.12 129.404 146.009C128.394 145.898 127.666 144.99 127.777 143.98Z" fill="#18414C"/>
<path d="M140.06 142.654C140.171 141.644 141.08 140.916 142.089 141.027C143.099 141.138 143.827 142.047 143.716 143.056C143.605 144.066 142.696 144.794 141.687 144.683C140.678 144.572 139.949 143.663 140.06 142.654Z" fill="#18414C"/>
<path d="M135.668 163.986C133.997 163.986 132.194 163.544 130.428 162.294C130.222 162.147 130.173 161.862 130.319 161.656C130.467 161.449 130.753 161.403 130.957 161.547C135.203 164.553 139.739 162.382 141.585 161.236C139.472 160.336 137.022 157.13 136.702 156.702C136.593 156.556 136.58 156.36 136.671 156.201C136.76 156.043 136.932 155.95 137.117 155.972C139.453 156.213 142.466 154.064 143.672 153.095C141.91 152.266 137.495 150.015 136.644 147.9C136.549 147.666 136.664 147.399 136.898 147.305C137.13 147.21 137.4 147.325 137.493 147.559C138.229 149.387 142.949 151.789 144.706 152.56C144.848 152.623 144.949 152.753 144.973 152.906C144.998 153.059 144.944 153.215 144.829 153.319C144.668 153.464 141.207 156.564 138.007 156.88C139.415 158.594 141.532 160.679 142.677 160.549C142.876 160.523 143.071 160.64 143.15 160.828C143.229 161.015 143.174 161.232 143.016 161.36C142.97 161.397 139.707 163.986 135.668 163.986Z" fill="#18414C"/>
<path d="M132.903 166.134C131.32 166.134 129.978 165.324 129.495 164.67C129.345 164.466 129.388 164.18 129.591 164.03C129.796 163.882 130.08 163.923 130.231 164.127C130.609 164.639 132.033 165.425 133.527 165.166C133.769 165.113 134.012 165.289 134.055 165.538C134.099 165.787 133.932 166.024 133.683 166.067C133.419 166.113 133.158 166.134 132.903 166.134Z" fill="#18414C"/>
<path d="M143.727 110.687C124.684 115.265 119.723 109.99 108.699 115.984C97.6753 121.979 81.1663 142.271 105.977 161.651L112.782 151.485C112.782 151.485 122.642 140.442 120.916 135.559C119.191 130.676 118.141 127.167 118.141 127.167C118.141 127.167 133.098 135.554 135.147 132.124C135.605 131.358 135.527 130.568 135.157 129.802C138.576 132.037 142.659 133.821 145.446 132.124C146.69 131.366 146.974 130.508 146.665 129.631C148.891 130.257 151.087 130.056 152.732 128.083C156.422 123.657 162.77 106.109 143.727 110.687Z" fill="#121212"/>
<path d="M114.734 150.79C112.678 147.115 103.384 137.212 102.207 143.247C101.03 149.282 104.364 156.327 109.329 157.901C114.292 159.475 117.024 154.885 114.734 150.79Z" fill="#FFC6A8"/>
<path d="M133.734 175.281L126.717 177.114C126.071 177.283 125.411 176.896 125.242 176.25L124.61 173.828C124.441 173.182 124.828 172.521 125.474 172.353L132.491 170.52C133.137 170.351 133.798 170.738 133.966 171.384L134.598 173.806C134.767 174.452 134.38 175.112 133.734 175.281Z" fill="#204E5F"/>
<path d="M117.841 177.813C113.569 177.813 110.212 176.138 107.944 172.82C103.699 166.612 105.041 155.339 105.405 152.836C102.915 150.403 89.1183 136.135 96.7043 125.849C97.0043 125.443 97.5783 125.355 97.9843 125.656C98.3913 125.956 98.4783 126.53 98.1773 126.936C91.0003 136.668 106.846 151.686 107.007 151.836L107.366 152.172L107.285 152.657C107.264 152.785 105.18 165.534 109.455 171.787C113.308 177.421 120.293 176.329 125.474 174.42C125.948 174.246 126.475 174.487 126.65 174.963C126.824 175.438 126.582 175.964 126.107 176.139C123.069 177.256 120.303 177.813 117.841 177.813Z" fill="#F3B753"/>
<path d="M109.392 154.921H102.14C101.472 154.921 100.931 154.38 100.931 153.712V151.209C100.931 150.541 101.472 150 102.14 150H109.392C110.06 150 110.601 150.541 110.601 151.209V153.712C110.601 154.379 110.06 154.921 109.392 154.921Z" fill="#204E5F"/>
<path d="M81.7287 347.779C81.7287 347.779 101.97 350.429 104.581 349.517C107.191 348.605 107.938 349.984 106.641 350.704C105.344 351.424 102.521 354.534 99.0107 354.467C95.5007 354.4 92.5227 354.544 92.5227 354.544C92.5227 354.544 95.9707 361.533 94.4957 366.798C93.0217 372.062 89.1547 397.536 87.1627 398.27C85.1707 399.003 84.3977 397.331 84.6997 395.361C84.6997 395.361 80.1847 396.852 81.2337 393.005C81.2337 393.005 78.1437 393.577 79.1737 390.373C80.2037 387.169 81.9297 373.547 82.5207 370.922C83.1117 368.296 78.1787 358.006 78.1787 358.006L81.7287 347.779Z" fill="#FFC6A8"/>
<path d="M234.389 164.805L250.647 143.473C251.124 142.847 251.938 142.58 252.693 142.801L253.728 143.104L241.163 161.968C241.163 161.968 250.827 159.096 248.958 163.673C248.958 163.673 254.185 161.987 251.438 166.835C251.438 166.835 256.931 165.708 253.727 169.394C250.523 173.08 247.874 189.854 237.296 190.154C226.718 190.453 227.891 188.049 227.891 188.049L234.389 164.805Z" fill="#FFC6A8"/>
<path d="M248.075 178.171C246.288 176.949 247.242 176.813 247.242 176.813C247.242 176.813 244.724 177.364 244.114 176.813C243.504 176.262 243.122 175.191 243.122 175.191C243.122 175.191 241.672 175.493 240.909 175.191C240.146 174.889 238.239 170.178 239.841 168.642C241.443 167.106 246.173 167.642 246.44 164.628C246.561 163.268 246.905 162.056 247.247 161.118C244.869 160.868 241.162 161.968 241.162 161.968L242.041 160.648L236.592 161.912L234.388 164.804L227.891 188.048C227.891 188.048 227.65 188.571 228.45 189.098C228.45 189.098 239.077 184.501 240.222 179.866C240.222 179.866 242.625 180.313 243.655 180.232C243.655 180.232 244.685 181.181 245.6 180.953C245.6 180.953 246.273 182.07 247.987 181.574C248.493 180.615 248.961 179.641 249.395 178.666C248.949 178.603 248.496 178.459 248.075 178.171Z" fill="#EAA98C"/>
<path d="M227.892 188.05L225.893 168.025C225.554 164.635 227.938 161.578 231.308 161.079L246.441 158.84C246.441 158.84 247.09 166.762 240.452 166.591C233.815 166.421 247.376 177.864 227.892 188.05Z" fill="#FFC6A8"/>
<path d="M223.608 186.355C223.608 186.355 216.483 220.177 199.453 222.619C188.61 224.174 174.278 215.029 165.295 208.179C159.314 203.618 151.978 201.212 144.458 201.374L93.4607 202.473C81.5687 202.729 70.7257 209.34 65.0507 219.793L12.0947 312.173L73.8567 373.115L89.7247 342.431L45.3597 302.876L78.3497 246.374L87.0837 338.558L151.159 336.64L154.846 247.826C163.795 250.27 173.796 252.999 180.838 254.917C196.707 259.239 235.061 254.357 241.974 221.091C248.887 187.825 248.887 187.825 248.887 187.825L223.608 186.355Z" fill="#F3B753"/>
<path d="M78.3787 246.691L82.8427 293.802C88.1497 268.941 89.4827 226.395 89.4827 226.395L78.3787 246.691Z" fill="#F3B753"/>
<path d="M223.099 193.494L222.876 195.312L245.976 198.142L246.199 196.324L223.099 193.494Z" fill="#FFB6B6"/>
<path d="M222.012 197.271L221.789 199.09L244.889 201.92L245.112 200.101L222.012 197.271Z" fill="#FFB6B6"/>
<path d="M81.9084 337.454L66.3664 360.63L64.6895 359.479L80.2305 336.303L81.9084 337.454Z" fill="#FFB6B6"/>
<path d="M85.0471 340.51L69.5061 363.686L67.8291 362.535L83.3701 339.359L85.0471 340.51Z" fill="#FFB6B6"/>
<path d="M118.145 215.225C118.145 215.225 113.953 307.648 111.582 316.617L125.077 330.738L134.062 316.617C134.062 316.617 129.185 225.224 125.077 215.225H118.145Z" fill="#121212"/>
<path d="M125.077 215.225H118.145C118.145 215.225 118.004 218.341 117.759 223.471C118.087 223.554 118.426 223.595 118.77 223.567L124.795 223.064C125.467 223.008 126.089 222.722 126.615 222.28C126.098 218.915 125.582 216.453 125.077 215.225Z" fill="#121212"/>
<path d="M130.301 210.137L126.939 217.07C126.645 217.677 126.049 218.081 125.376 218.129L117.691 218.684C117.018 218.733 116.371 218.419 115.992 217.86L111.669 211.482C111.29 210.924 111.239 210.206 111.533 209.599L114.895 202.666C115.189 202.059 115.785 201.655 116.458 201.607L124.143 201.052C124.816 201.003 125.463 201.317 125.842 201.876L130.165 208.254C130.543 208.812 130.595 209.53 130.301 210.137Z" fill="#121212"/>
<path d="M129.303 212.195L129.906 210.952C130.445 209.841 130.35 208.526 129.657 207.504L126.35 202.626C125.657 201.604 124.471 201.029 123.239 201.118L117.361 201.543C116.129 201.632 115.038 202.371 114.5 203.483L111.929 208.786C111.39 209.897 111.485 211.212 112.178 212.234L112.738 213.059L121.427 208.308L129.303 212.195Z" fill="#121212"/>
<path d="M120.897 202.854L139.701 215.297L136.773 193.586L120.911 193.918L104.673 194.258L102.497 216.077L120.897 202.854Z" fill="#F3B753"/>
</g>
</svg>
